<svg xmlns="http://www.w3.org/2000/svg" version="1.1" xmlns:xlink="http://www.w3.org/1999/xlink" xmlns:svgjs="http://svgjs.dev/svgjs" width="1500" height="1500" viewBox="0 0 1500 1500"><rect width="1500" height="1500" fill="#000000"></rect><g transform="matrix(0.6666666666666666,0,0,0.6666666666666666,249.39393939393938,590.7011100357888)"><svg viewBox="0 0 396 126" data-background-color="#191552" preserveAspectRatio="xMidYMid meet" height="477" width="1500" xmlns="http://www.w3.org/2000/svg" xmlns:xlink="http://www.w3.org/1999/xlink"><g id="tight-bounds" transform="matrix(1,0,0,1,0.2400000000000091,0.11842809902708495)"><svg viewBox="0 0 395.52 125.76314380194582" height="125.76314380194582" width="395.52"><g><svg viewBox="0 0 395.52 125.76314380194582" height="125.76314380194582" width="395.52"><g transform="matrix(1,0,0,1,0,64.69806761655526)"><svg viewBox="0 0 395.52 61.06507618539055" height="61.06507618539055" width="395.52"><g id="textblocktransform"><svg viewBox="0 0 395.52 61.06507618539055" height="61.06507618539055" width="395.52" id="textblock"><g><svg viewBox="0 0 395.52 61.06507618539055" height="61.06507618539055" width="395.52"><g transform="matrix(1,0,0,1,0,0)"><svg width="395.52" viewBox="0.05649999999999489 -21.32023 316.15545000000003 48.81182" height="61.06507618539055" data-palette-color="url(#8df87ce5-a423-4523-b4be-a565bb13e3dd)"></svg></g></svg></g></svg></g></svg></g><g transform="matrix(1,0,0,1,180.04543456633263,0)"><svg viewBox="0 0 35.4291308673347 61.06507618539055" height="61.06507618539055" width="35.4291308673347"><g><svg xmlns="http://www.w3.org/2000/svg" xmlns:xlink="http://www.w3.org/1999/xlink" version="1.1" x="0" y="0" viewBox="21.679106830508623 1 56.85827385947761 98" enable-background="new 0 0 100 100" xml:space="preserve" height="61.06507618539055" width="35.4291308673347" class="icon-icon-0" data-fill-palette-color="accent" id="icon-0"></svg></g></svg></g><g></g></svg></g><defs></defs><mask id="911e99af-37a7-4a2a-aeef-6aef56a1d198"><g id="SvgjsG1136"><svg viewBox="0 0 395.52 125.76314380194582" height="125.76314380194582" width="395.52"><g><svg viewBox="0 0 395.52 125.76314380194582" height="125.76314380194582" width="395.52"><g transform="matrix(1,0,0,1,0,64.69806761655526)"><svg viewBox="0 0 395.52 61.06507618539055" height="61.06507618539055" width="395.52"><g id="SvgjsG1135"><svg viewBox="0 0 395.52 61.06507618539055" height="61.06507618539055" width="395.52" id="SvgjsSvg1134"><g><svg viewBox="0 0 395.52 61.06507618539055" height="61.06507618539055" width="395.52"><g transform="matrix(1,0,0,1,0,0)"><svg width="395.52" viewBox="0.05649999999999489 -21.32023 316.15545000000003 48.81182" height="61.06507618539055" data-palette-color="url(#8df87ce5-a423-4523-b4be-a565bb13e3dd)"><path d="M29.615-13.812l-2.645 3.23c-0.318-0.526-0.768-1.053-1.349-1.582-0.581-0.529-1.251-1.032-2.01-1.51-0.752-0.476-1.593-0.903-2.524-1.281-0.925-0.37-1.907-0.641-2.946-0.814v0c-2.67-0.444-4.727-0.265-6.172 0.535-1.436 0.795-2.301 2.074-2.594 3.837v0c-0.205 1.236-0.042 2.267 0.49 3.092 0.532 0.825 1.438 1.577 2.717 2.256 1.272 0.684 2.913 1.444 4.923 2.278v0c2.321 0.92 4.3 1.901 5.938 2.943 1.631 1.042 2.816 2.269 3.554 3.683 0.738 1.413 0.934 3.163 0.588 5.247v0c-0.275 1.657-0.834 3.045-1.675 4.162-0.841 1.117-1.897 1.979-3.167 2.586-1.271 0.613-2.704 0.98-4.298 1.1-1.595 0.12-3.29 0.031-5.085-0.268v0c-1.756-0.292-3.441-0.765-5.056-1.418-1.615-0.654-3.112-1.463-4.493-2.429-1.38-0.966-2.632-2.097-3.754-3.392v0l2.717-3.359c0.428 0.639 1.011 1.297 1.75 1.973 0.747 0.671 1.611 1.325 2.594 1.962 0.983 0.63 2.07 1.185 3.261 1.667 1.19 0.482 2.437 0.831 3.738 1.047v0c2.479 0.412 4.477 0.285 5.994-0.382 1.517-0.667 2.419-1.865 2.706-3.595v0c0.216-1.302 0.008-2.408-0.624-3.318-0.639-0.91-1.666-1.75-3.079-2.518-1.413-0.769-3.152-1.592-5.216-2.469v0c-2.243-0.981-4.105-1.953-5.588-2.915-1.481-0.969-2.525-2.089-3.131-3.359-0.613-1.271-0.768-2.821-0.464-4.649v0c0.368-2.216 1.219-3.998 2.55-5.344 1.327-1.354 3.002-2.265 5.026-2.733 2.018-0.469 4.217-0.506 6.598-0.11v0c1.559 0.259 2.989 0.662 4.289 1.209 1.3 0.554 2.487 1.221 3.561 2.001 1.073 0.78 2.032 1.659 2.876 2.637zM37.173 14.936l19.248 2.575-0.525 3.925-23.669-3.167 4.664-34.859 23.223 3.107-0.525 3.925-18.803-2.515-1.51 11.289 16.354 2.188-0.493 3.687-16.354-2.188zM61.193 4.001v0c0.208-2.137 0.783-4.197 1.726-6.182 0.936-1.985 2.203-3.754 3.802-5.308 1.591-1.553 3.47-2.73 5.638-3.531 2.168-0.801 4.569-1.073 7.202-0.817v0c3.119 0.303 5.727 1.277 7.825 2.921 2.097 1.651 3.581 3.647 4.451 5.988v0l-3.724 1.929c-0.546-1.547-1.311-2.81-2.294-3.79-0.984-0.973-2.075-1.699-3.275-2.177-1.199-0.485-2.389-0.785-3.57-0.899v0c-1.938-0.188-3.694 0.04-5.27 0.683-1.57 0.645-2.929 1.574-4.079 2.789-1.143 1.215-2.049 2.611-2.718 4.187-0.67 1.583-1.084 3.193-1.243 4.832v0c-0.176 1.811-0.04 3.583 0.408 5.314 0.441 1.737 1.143 3.299 2.106 4.686 0.956 1.392 2.138 2.539 3.544 3.439 1.407 0.894 2.983 1.425 4.728 1.595v0c1.214 0.118 2.482 0.027 3.805-0.273 1.322-0.3 2.588-0.85 3.797-1.651 1.202-0.794 2.202-1.882 3-3.265v0l3.506 2.38c-0.893 1.675-2.155 3.046-3.786 4.113-1.631 1.067-3.406 1.826-5.325 2.276-1.919 0.443-3.78 0.577-5.585 0.402v0c-2.402-0.233-4.555-0.965-6.458-2.195-1.903-1.23-3.504-2.779-4.803-4.647-1.291-1.874-2.234-3.925-2.828-6.152-0.6-2.235-0.793-4.451-0.58-6.647zM100.279 25.341l-4.451-0.277 2.188-35.102 14.631 0.912c1.55 0.097 2.951 0.505 4.202 1.224 1.244 0.725 2.308 1.653 3.193 2.784 0.891 1.131 1.558 2.382 2.001 3.752 0.449 1.364 0.631 2.738 0.545 4.122v0c-0.119 1.916-0.662 3.713-1.629 5.389-0.966 1.676-2.258 3.002-3.875 3.976-1.617 0.975-3.464 1.397-5.539 1.268v0l-10.48-0.653zM102.221-5.808l-0.909 14.582 10.23 0.637c1.224 0.076 2.309-0.187 3.255-0.789 0.946-0.602 1.71-1.446 2.292-2.532 0.582-1.093 0.915-2.298 0.997-3.615v0c0.086-1.384-0.132-2.647-0.655-3.788-0.53-1.142-1.251-2.055-2.164-2.74-0.919-0.685-1.954-1.064-3.105-1.135v0zM131.554 26.883l-4.459-0.121 0.956-35.157 15.054 0.409c1.553 0.042 2.964 0.401 4.233 1.076 1.269 0.681 2.368 1.572 3.298 2.67 0.93 1.099 1.641 2.325 2.131 3.679 0.49 1.347 0.717 2.714 0.679 4.1v0c-0.044 1.619-0.389 3.147-1.035 4.584-0.653 1.436-1.546 2.649-2.68 3.639-1.134 0.996-2.45 1.674-3.946 2.033v0l8.15 13.697-5.048-0.138-7.684-12.843-9.306-0.253zM132.402-4.315l-0.397 14.604 10.646 0.29c1.22 0.033 2.295-0.274 3.226-0.923 0.925-0.655 1.659-1.535 2.203-2.641 0.537-1.112 0.823-2.312 0.858-3.598v0c0.036-1.32-0.228-2.54-0.791-3.663-0.563-1.122-1.315-2.026-2.257-2.712-0.935-0.686-1.982-1.044-3.142-1.076v0zM174.417 27.453v0c-2.48 0.031-4.732-0.438-6.758-1.406-2.025-0.962-3.785-2.287-5.28-3.974-1.488-1.682-2.641-3.581-3.461-5.698-0.82-2.123-1.244-4.308-1.271-6.555v0c-0.029-2.34 0.366-4.582 1.187-6.725 0.814-2.137 1.96-4.051 3.438-5.743 1.486-1.685 3.229-3.027 5.231-4.025 2.001-0.998 4.192-1.512 6.571-1.542v0c2.473-0.031 4.723 0.451 6.749 1.446 2.033 1.002 3.786 2.353 5.26 4.055 1.474 1.695 2.622 3.594 3.441 5.698 0.813 2.103 1.233 4.262 1.261 6.475v0c0.029 2.346-0.353 4.591-1.146 6.735-0.8 2.137-1.943 4.048-3.43 5.733-1.479 1.685-3.219 3.02-5.22 4.005-2.001 0.985-4.192 1.492-6.572 1.521zM162.157 9.764v0c0.022 1.787 0.334 3.509 0.934 5.169 0.594 1.659 1.429 3.126 2.505 4.399 1.069 1.28 2.352 2.291 3.848 3.033 1.496 0.735 3.154 1.091 4.973 1.068v0c1.88-0.023 3.558-0.438 5.035-1.242 1.477-0.812 2.727-1.884 3.751-3.217 1.023-1.339 1.798-2.836 2.324-4.49 0.526-1.66 0.779-3.333 0.758-5.019v0c-0.022-1.78-0.333-3.493-0.934-5.139-0.6-1.646-1.445-3.112-2.535-4.399-1.089-1.293-2.372-2.301-3.848-3.022-1.482-0.728-3.114-1.081-4.893-1.06v0c-1.887 0.023-3.568 0.434-5.045 1.233-1.47 0.792-2.717 1.854-3.741 3.187-1.03 1.333-1.815 2.819-2.355 4.459-0.54 1.647-0.799 3.327-0.777 5.04zM192.781 25.265l0.977-3.667c0.652 0.398 1.536 0.762 2.651 1.092 1.123 0.33 2.443 0.461 3.962 0.393v0c1.552-0.07 2.812-0.383 3.781-0.94 0.963-0.55 1.688-1.357 2.174-2.42 0.48-1.063 0.783-2.407 0.911-4.034 0.121-1.627 0.131-3.546 0.032-5.758v0l-0.844-18.851 4.455-0.199 0.8 17.862c0.117 2.604 0.094 5.001-0.068 7.19-0.169 2.19-0.614 4.105-1.334 5.745-0.721 1.634-1.845 2.915-3.372 3.845-1.527 0.923-3.596 1.442-6.206 1.559v0c-1.652 0.074-3.112-0.041-4.38-0.344-1.268-0.304-2.448-0.795-3.539-1.473zM229.665 6.968v0c-0.196-2.138-0.016-4.27 0.539-6.396 0.548-2.126 1.462-4.1 2.741-5.924 1.272-1.824 2.898-3.332 4.878-4.524 1.98-1.192 4.287-1.909 6.923-2.15v0c3.12-0.286 5.864 0.183 8.232 1.405 2.369 1.229 4.2 2.912 5.494 5.05v0l-3.298 2.591c-0.826-1.417-1.814-2.515-2.963-3.293-1.149-0.772-2.357-1.28-3.624-1.526-1.268-0.252-2.493-0.324-3.675-0.216v0c-1.939 0.178-3.622 0.73-5.05 1.658-1.421 0.927-2.583 2.094-3.485 3.502-0.895 1.408-1.524 2.948-1.886 4.621-0.362 1.68-0.467 3.34-0.317 4.98v0c0.166 1.812 0.631 3.527 1.395 5.144 0.758 1.624 1.74 3.027 2.946 4.209 1.2 1.189 2.575 2.094 4.125 2.715 1.549 0.615 3.197 0.842 4.942 0.682v0c1.215-0.111 2.444-0.438 3.686-0.98 1.242-0.542 2.383-1.319 3.422-2.332 1.033-1.005 1.811-2.261 2.336-3.768v0l3.89 1.682c-0.564 1.812-1.547 3.395-2.95 4.749-1.402 1.354-3.004 2.431-4.805 3.231-1.802 0.794-3.605 1.274-5.411 1.44v0c-2.403 0.22-4.655-0.096-6.755-0.948-2.1-0.852-3.962-2.074-5.587-3.666-1.619-1.599-2.929-3.437-3.93-5.514-1.008-2.083-1.612-4.224-1.813-6.422zM288.331-16.949l0.505 3.927-12.041 1.548 3.979 30.956-4.423 0.568-3.98-30.955-12.041 1.548-0.505-3.928zM302.595 16.374l-4.404 0.704-5.553-34.729 22.949-3.669 0.625 3.91-18.545 2.965 1.854 11.593 15.602-2.495 0.587 3.674-15.602 2.494z" opacity="1" transform="matrix(1,0,0,1,0,0)" fill="white" class="wordmark-text-0" id="SvgjsPath1133"></path></svg></g></svg></g></svg></g></svg></g><g transform="matrix(1,0,0,1,180.04543456633263,0)"><svg viewBox="0 0 35.4291308673347 61.06507618539055" height="61.06507618539055" width="35.4291308673347"><g><svg xmlns="http://www.w3.org/2000/svg" xmlns:xlink="http://www.w3.org/1999/xlink" version="1.1" x="0" y="0" viewBox="21.679106830508623 1 56.85827385947761 98" enable-background="new 0 0 100 100" xml:space="preserve" height="61.06507618539055" width="35.4291308673347" class="icon-icon-0" data-fill-palette-color="accent" id="SvgjsSvg1132"><g fill="black"><path fill-rule="evenodd" clip-rule="evenodd" d="M30.545 28.822c-1.165 7.217 0.33 14.85 6.5 19.041C30.758 19.81 45.756 8.664 59.646 1c-16.18 23.046 16.896 23.644 18.777 50.13C80.028 73.71 64.507 91.317 46.639 99c0.206-22.825-22.55-25.933-24.838-44.603C20.905 47.094 25.062 33.766 30.545 28.822z" fill="black"></path></g></svg></g></svg></g><g></g></svg></g><defs><mask></mask></defs></svg><rect width="395.52" height="125.76314380194582" fill="black" stroke="none" visibility="hidden"></rect></g></mask><linearGradient x1="0" x2="1" y1="0.578" y2="0.595" id="8df87ce5-a423-4523-b4be-a565bb13e3dd"><stop stop-color="#6ee2f5" offset="0"></stop><stop stop-color="#6454f0" offset="1"></stop></linearGradient><rect width="395.52" height="125.76314380194582" fill="#ffffff" mask="url(#911e99af-37a7-4a2a-aeef-6aef56a1d198)" data-fill-palette-color="primary"></rect><mask id="db4686d4-35c8-4941-b711-086337c3ed92"><g id="SvgjsG1145"><svg viewBox="0 0 395.52 125.76314380194582" height="125.76314380194582" width="395.52"><g><svg viewBox="0 0 395.52 125.76314380194582" height="125.76314380194582" width="395.52"><g transform="matrix(1,0,0,1,0,64.69806761655526)"><svg viewBox="0 0 395.52 61.06507618539055" height="61.06507618539055" width="395.52"><g id="SvgjsG1144"><svg viewBox="0 0 395.52 61.06507618539055" height="61.06507618539055" width="395.52" id="SvgjsSvg1143"><g><svg viewBox="0 0 395.52 61.06507618539055" height="61.06507618539055" width="395.52"><g transform="matrix(1,0,0,1,0,0)"><svg width="395.52" viewBox="0.05649999999999489 -21.32023 316.15545000000003 48.81182" height="61.06507618539055" data-palette-color="url(#8df87ce5-a423-4523-b4be-a565bb13e3dd)"></svg></g></svg></g></svg></g></svg></g><g transform="matrix(1,0,0,1,180.04543456633263,0)"><svg viewBox="0 0 35.4291308673347 61.06507618539055" height="61.06507618539055" width="35.4291308673347"><g><svg xmlns="http://www.w3.org/2000/svg" xmlns:xlink="http://www.w3.org/1999/xlink" version="1.1" x="0" y="0" viewBox="21.679106830508623 1 56.85827385947761 98" enable-background="new 0 0 100 100" xml:space="preserve" height="61.06507618539055" width="35.4291308673347" class="icon-icon-0" data-fill-palette-color="accent" id="SvgjsSvg1142"><g fill="white"><path fill-rule="evenodd" clip-rule="evenodd" d="M30.545 28.822c-1.165 7.217 0.33 14.85 6.5 19.041C30.758 19.81 45.756 8.664 59.646 1c-16.18 23.046 16.896 23.644 18.777 50.13C80.028 73.71 64.507 91.317 46.639 99c0.206-22.825-22.55-25.933-24.838-44.603C20.905 47.094 25.062 33.766 30.545 28.822z" fill="white"></path></g></svg></g></svg></g><g></g></svg></g><defs><mask></mask></defs><mask><g id="SvgjsG1141"><svg viewBox="0 0 395.52 125.76314380194582" height="125.76314380194582" width="395.52"><g><svg viewBox="0 0 395.52 125.76314380194582" height="125.76314380194582" width="395.52"><g transform="matrix(1,0,0,1,0,64.69806761655526)"><svg viewBox="0 0 395.52 61.06507618539055" height="61.06507618539055" width="395.52"><g id="SvgjsG1140"><svg viewBox="0 0 395.52 61.06507618539055" height="61.06507618539055" width="395.52" id="SvgjsSvg1139"><g><svg viewBox="0 0 395.52 61.06507618539055" height="61.06507618539055" width="395.52"><g transform="matrix(1,0,0,1,0,0)"><svg width="395.52" viewBox="0.05649999999999489 -21.32023 316.15545000000003 48.81182" height="61.06507618539055" data-palette-color="url(#8df87ce5-a423-4523-b4be-a565bb13e3dd)"><path d="M29.615-13.812l-2.645 3.23c-0.318-0.526-0.768-1.053-1.349-1.582-0.581-0.529-1.251-1.032-2.01-1.51-0.752-0.476-1.593-0.903-2.524-1.281-0.925-0.37-1.907-0.641-2.946-0.814v0c-2.67-0.444-4.727-0.265-6.172 0.535-1.436 0.795-2.301 2.074-2.594 3.837v0c-0.205 1.236-0.042 2.267 0.49 3.092 0.532 0.825 1.438 1.577 2.717 2.256 1.272 0.684 2.913 1.444 4.923 2.278v0c2.321 0.92 4.3 1.901 5.938 2.943 1.631 1.042 2.816 2.269 3.554 3.683 0.738 1.413 0.934 3.163 0.588 5.247v0c-0.275 1.657-0.834 3.045-1.675 4.162-0.841 1.117-1.897 1.979-3.167 2.586-1.271 0.613-2.704 0.98-4.298 1.1-1.595 0.12-3.29 0.031-5.085-0.268v0c-1.756-0.292-3.441-0.765-5.056-1.418-1.615-0.654-3.112-1.463-4.493-2.429-1.38-0.966-2.632-2.097-3.754-3.392v0l2.717-3.359c0.428 0.639 1.011 1.297 1.75 1.973 0.747 0.671 1.611 1.325 2.594 1.962 0.983 0.63 2.07 1.185 3.261 1.667 1.19 0.482 2.437 0.831 3.738 1.047v0c2.479 0.412 4.477 0.285 5.994-0.382 1.517-0.667 2.419-1.865 2.706-3.595v0c0.216-1.302 0.008-2.408-0.624-3.318-0.639-0.91-1.666-1.75-3.079-2.518-1.413-0.769-3.152-1.592-5.216-2.469v0c-2.243-0.981-4.105-1.953-5.588-2.915-1.481-0.969-2.525-2.089-3.131-3.359-0.613-1.271-0.768-2.821-0.464-4.649v0c0.368-2.216 1.219-3.998 2.55-5.344 1.327-1.354 3.002-2.265 5.026-2.733 2.018-0.469 4.217-0.506 6.598-0.11v0c1.559 0.259 2.989 0.662 4.289 1.209 1.3 0.554 2.487 1.221 3.561 2.001 1.073 0.78 2.032 1.659 2.876 2.637zM37.173 14.936l19.248 2.575-0.525 3.925-23.669-3.167 4.664-34.859 23.223 3.107-0.525 3.925-18.803-2.515-1.51 11.289 16.354 2.188-0.493 3.687-16.354-2.188zM61.193 4.001v0c0.208-2.137 0.783-4.197 1.726-6.182 0.936-1.985 2.203-3.754 3.802-5.308 1.591-1.553 3.47-2.73 5.638-3.531 2.168-0.801 4.569-1.073 7.202-0.817v0c3.119 0.303 5.727 1.277 7.825 2.921 2.097 1.651 3.581 3.647 4.451 5.988v0l-3.724 1.929c-0.546-1.547-1.311-2.81-2.294-3.79-0.984-0.973-2.075-1.699-3.275-2.177-1.199-0.485-2.389-0.785-3.57-0.899v0c-1.938-0.188-3.694 0.04-5.27 0.683-1.57 0.645-2.929 1.574-4.079 2.789-1.143 1.215-2.049 2.611-2.718 4.187-0.67 1.583-1.084 3.193-1.243 4.832v0c-0.176 1.811-0.04 3.583 0.408 5.314 0.441 1.737 1.143 3.299 2.106 4.686 0.956 1.392 2.138 2.539 3.544 3.439 1.407 0.894 2.983 1.425 4.728 1.595v0c1.214 0.118 2.482 0.027 3.805-0.273 1.322-0.3 2.588-0.85 3.797-1.651 1.202-0.794 2.202-1.882 3-3.265v0l3.506 2.38c-0.893 1.675-2.155 3.046-3.786 4.113-1.631 1.067-3.406 1.826-5.325 2.276-1.919 0.443-3.78 0.577-5.585 0.402v0c-2.402-0.233-4.555-0.965-6.458-2.195-1.903-1.23-3.504-2.779-4.803-4.647-1.291-1.874-2.234-3.925-2.828-6.152-0.6-2.235-0.793-4.451-0.58-6.647zM100.279 25.341l-4.451-0.277 2.188-35.102 14.631 0.912c1.55 0.097 2.951 0.505 4.202 1.224 1.244 0.725 2.308 1.653 3.193 2.784 0.891 1.131 1.558 2.382 2.001 3.752 0.449 1.364 0.631 2.738 0.545 4.122v0c-0.119 1.916-0.662 3.713-1.629 5.389-0.966 1.676-2.258 3.002-3.875 3.976-1.617 0.975-3.464 1.397-5.539 1.268v0l-10.48-0.653zM102.221-5.808l-0.909 14.582 10.23 0.637c1.224 0.076 2.309-0.187 3.255-0.789 0.946-0.602 1.71-1.446 2.292-2.532 0.582-1.093 0.915-2.298 0.997-3.615v0c0.086-1.384-0.132-2.647-0.655-3.788-0.53-1.142-1.251-2.055-2.164-2.74-0.919-0.685-1.954-1.064-3.105-1.135v0zM131.554 26.883l-4.459-0.121 0.956-35.157 15.054 0.409c1.553 0.042 2.964 0.401 4.233 1.076 1.269 0.681 2.368 1.572 3.298 2.67 0.93 1.099 1.641 2.325 2.131 3.679 0.49 1.347 0.717 2.714 0.679 4.1v0c-0.044 1.619-0.389 3.147-1.035 4.584-0.653 1.436-1.546 2.649-2.68 3.639-1.134 0.996-2.45 1.674-3.946 2.033v0l8.15 13.697-5.048-0.138-7.684-12.843-9.306-0.253zM132.402-4.315l-0.397 14.604 10.646 0.29c1.22 0.033 2.295-0.274 3.226-0.923 0.925-0.655 1.659-1.535 2.203-2.641 0.537-1.112 0.823-2.312 0.858-3.598v0c0.036-1.32-0.228-2.54-0.791-3.663-0.563-1.122-1.315-2.026-2.257-2.712-0.935-0.686-1.982-1.044-3.142-1.076v0zM174.417 27.453v0c-2.48 0.031-4.732-0.438-6.758-1.406-2.025-0.962-3.785-2.287-5.28-3.974-1.488-1.682-2.641-3.581-3.461-5.698-0.82-2.123-1.244-4.308-1.271-6.555v0c-0.029-2.34 0.366-4.582 1.187-6.725 0.814-2.137 1.96-4.051 3.438-5.743 1.486-1.685 3.229-3.027 5.231-4.025 2.001-0.998 4.192-1.512 6.571-1.542v0c2.473-0.031 4.723 0.451 6.749 1.446 2.033 1.002 3.786 2.353 5.26 4.055 1.474 1.695 2.622 3.594 3.441 5.698 0.813 2.103 1.233 4.262 1.261 6.475v0c0.029 2.346-0.353 4.591-1.146 6.735-0.8 2.137-1.943 4.048-3.43 5.733-1.479 1.685-3.219 3.02-5.22 4.005-2.001 0.985-4.192 1.492-6.572 1.521zM162.157 9.764v0c0.022 1.787 0.334 3.509 0.934 5.169 0.594 1.659 1.429 3.126 2.505 4.399 1.069 1.28 2.352 2.291 3.848 3.033 1.496 0.735 3.154 1.091 4.973 1.068v0c1.88-0.023 3.558-0.438 5.035-1.242 1.477-0.812 2.727-1.884 3.751-3.217 1.023-1.339 1.798-2.836 2.324-4.49 0.526-1.66 0.779-3.333 0.758-5.019v0c-0.022-1.78-0.333-3.493-0.934-5.139-0.6-1.646-1.445-3.112-2.535-4.399-1.089-1.293-2.372-2.301-3.848-3.022-1.482-0.728-3.114-1.081-4.893-1.06v0c-1.887 0.023-3.568 0.434-5.045 1.233-1.47 0.792-2.717 1.854-3.741 3.187-1.03 1.333-1.815 2.819-2.355 4.459-0.54 1.647-0.799 3.327-0.777 5.04zM192.781 25.265l0.977-3.667c0.652 0.398 1.536 0.762 2.651 1.092 1.123 0.33 2.443 0.461 3.962 0.393v0c1.552-0.07 2.812-0.383 3.781-0.94 0.963-0.55 1.688-1.357 2.174-2.42 0.48-1.063 0.783-2.407 0.911-4.034 0.121-1.627 0.131-3.546 0.032-5.758v0l-0.844-18.851 4.455-0.199 0.8 17.862c0.117 2.604 0.094 5.001-0.068 7.19-0.169 2.19-0.614 4.105-1.334 5.745-0.721 1.634-1.845 2.915-3.372 3.845-1.527 0.923-3.596 1.442-6.206 1.559v0c-1.652 0.074-3.112-0.041-4.38-0.344-1.268-0.304-2.448-0.795-3.539-1.473zM229.665 6.968v0c-0.196-2.138-0.016-4.27 0.539-6.396 0.548-2.126 1.462-4.1 2.741-5.924 1.272-1.824 2.898-3.332 4.878-4.524 1.98-1.192 4.287-1.909 6.923-2.15v0c3.12-0.286 5.864 0.183 8.232 1.405 2.369 1.229 4.2 2.912 5.494 5.05v0l-3.298 2.591c-0.826-1.417-1.814-2.515-2.963-3.293-1.149-0.772-2.357-1.28-3.624-1.526-1.268-0.252-2.493-0.324-3.675-0.216v0c-1.939 0.178-3.622 0.73-5.05 1.658-1.421 0.927-2.583 2.094-3.485 3.502-0.895 1.408-1.524 2.948-1.886 4.621-0.362 1.68-0.467 3.34-0.317 4.98v0c0.166 1.812 0.631 3.527 1.395 5.144 0.758 1.624 1.74 3.027 2.946 4.209 1.2 1.189 2.575 2.094 4.125 2.715 1.549 0.615 3.197 0.842 4.942 0.682v0c1.215-0.111 2.444-0.438 3.686-0.98 1.242-0.542 2.383-1.319 3.422-2.332 1.033-1.005 1.811-2.261 2.336-3.768v0l3.89 1.682c-0.564 1.812-1.547 3.395-2.95 4.749-1.402 1.354-3.004 2.431-4.805 3.231-1.802 0.794-3.605 1.274-5.411 1.44v0c-2.403 0.22-4.655-0.096-6.755-0.948-2.1-0.852-3.962-2.074-5.587-3.666-1.619-1.599-2.929-3.437-3.93-5.514-1.008-2.083-1.612-4.224-1.813-6.422zM288.331-16.949l0.505 3.927-12.041 1.548 3.979 30.956-4.423 0.568-3.98-30.955-12.041 1.548-0.505-3.928zM302.595 16.374l-4.404 0.704-5.553-34.729 22.949-3.669 0.625 3.91-18.545 2.965 1.854 11.593 15.602-2.495 0.587 3.674-15.602 2.494z" opacity="1" transform="matrix(1,0,0,1,0,0)" fill="black" class="wordmark-text-0" id="SvgjsPath1138"></path></svg></g></svg></g></svg></g></svg></g><g transform="matrix(1,0,0,1,180.04543456633263,0)"><svg viewBox="0 0 35.4291308673347 61.06507618539055" height="61.06507618539055" width="35.4291308673347"><g><svg xmlns="http://www.w3.org/2000/svg" xmlns:xlink="http://www.w3.org/1999/xlink" version="1.1" x="0" y="0" viewBox="21.679106830508623 1 56.85827385947761 98" enable-background="new 0 0 100 100" xml:space="preserve" height="61.06507618539055" width="35.4291308673347" class="icon-icon-0" data-fill-palette-color="accent" id="SvgjsSvg1137"><g fill="black"><path fill-rule="evenodd" clip-rule="evenodd" d="M30.545 28.822c-1.165 7.217 0.33 14.85 6.5 19.041C30.758 19.81 45.756 8.664 59.646 1c-16.18 23.046 16.896 23.644 18.777 50.13C80.028 73.71 64.507 91.317 46.639 99c0.206-22.825-22.55-25.933-24.838-44.603C20.905 47.094 25.062 33.766 30.545 28.822z" fill="black"></path></g></svg></g></svg></g><g></g></svg></g><defs><mask></mask></defs></svg><rect width="395.52" height="125.76314380194582" fill="black" stroke="none" visibility="hidden"></rect></g></mask></svg><rect width="395.52" height="125.76314380194582" fill="black" stroke="none" visibility="hidden"></rect></g></mask><linearGradient x1="0" x2="1" y1="0.578" y2="0.595" id="9d2a4a7e-d74d-4aa4-8b13-7e576348e9aa"><stop stop-color="#6ee2f5" offset="0"></stop><stop stop-color="#6454f0" offset="1"></stop></linearGradient><rect width="395.52" height="125.76314380194582" fill="#ffffff" mask="url(#db4686d4-35c8-4941-b711-086337c3ed92)" data-fill-palette-color="accent"></rect></svg><rect width="395.52" height="125.76314380194582" fill="none" stroke="none" visibility="hidden"></rect></g></svg></g></svg>